<svg width="46" height="44" viewBox="0 0 46 44" fill="none" xmlns="http://www.w3.org/2000/svg">
<g filter="url(#filter0_dd)">
<path d="M18.3653 30.7404C18.3653 30.852 18.2355 30.9413 18.0718 30.9413C17.8855 30.9581 17.7556 30.8688 17.7556 30.7404C17.7556 30.6287 17.8855 30.5394 18.0492 30.5394C18.2185 30.5226 18.3653 30.6119 18.3653 30.7404ZM16.6097 30.4891C16.5702 30.6008 16.6831 30.7292 16.8524 30.7627C16.9992 30.8185 17.1685 30.7627 17.2024 30.651C17.2363 30.5394 17.129 30.411 16.9597 30.3607C16.8129 30.3216 16.6492 30.3775 16.6097 30.4891ZM19.1048 30.3942C18.9411 30.4333 18.8282 30.5394 18.8452 30.6678C18.8621 30.7794 19.0089 30.852 19.1782 30.8129C19.3419 30.7739 19.4548 30.6678 19.4379 30.5561C19.421 30.45 19.2685 30.3775 19.1048 30.3942ZM22.8194 9C14.9895 9 9 14.8789 9 22.6226C9 28.8142 12.9403 34.1125 18.5685 35.9773C19.2911 36.1057 19.5452 35.6646 19.5452 35.3017C19.5452 34.9556 19.5282 33.0462 19.5282 31.8737C19.5282 31.8737 15.5766 32.7112 14.7468 30.21C14.7468 30.21 14.1032 28.5853 13.1774 28.1666C13.1774 28.1666 11.8847 27.29 13.2677 27.3068C13.2677 27.3068 14.6734 27.4185 15.4468 28.7472C16.6831 30.9023 18.7548 30.2826 19.5621 29.9141C19.6919 29.0208 20.0589 28.4011 20.4653 28.0326C17.3097 27.6864 14.1258 27.2342 14.1258 21.8633C14.1258 20.328 14.5548 19.5575 15.4581 18.5749C15.3113 18.212 14.8315 16.7158 15.6048 14.784C16.7847 14.4211 19.5 16.2915 19.5 16.2915C20.629 15.9788 21.8427 15.8169 23.0452 15.8169C24.2476 15.8169 25.4613 15.9788 26.5903 16.2915C26.5903 16.2915 29.3056 14.4155 30.4855 14.784C31.2589 16.7213 30.779 18.212 30.6323 18.5749C31.5355 19.5631 32.0887 20.3336 32.0887 21.8633C32.0887 27.251 28.7637 27.6809 25.6081 28.0326C26.1274 28.4736 26.5677 29.3111 26.5677 30.6231C26.5677 32.5046 26.5508 34.8327 26.5508 35.2905C26.5508 35.6534 26.8105 36.0945 27.5274 35.9661C33.1726 34.1125 37 28.8142 37 22.6226C37 14.8789 30.6492 9 22.8194 9ZM14.4871 28.2559C14.4137 28.3117 14.4306 28.4401 14.5266 28.5462C14.6169 28.6356 14.7468 28.6746 14.8202 28.6021C14.8935 28.5462 14.8766 28.4178 14.7806 28.3117C14.6903 28.2224 14.5605 28.1833 14.4871 28.2559ZM13.8774 27.8037C13.8379 27.8763 13.8944 27.9656 14.0073 28.0214C14.0976 28.0772 14.2105 28.0605 14.25 27.9823C14.2895 27.9098 14.2331 27.8204 14.1202 27.7646C14.0073 27.7311 13.9169 27.7478 13.8774 27.8037ZM15.7065 29.7912C15.6161 29.8638 15.65 30.0313 15.7798 30.1374C15.9097 30.2658 16.0734 30.2826 16.1468 30.1932C16.2202 30.1206 16.1863 29.9531 16.0734 29.8471C15.9492 29.7187 15.7798 29.7019 15.7065 29.7912ZM15.0629 28.9705C14.9726 29.0264 14.9726 29.1715 15.0629 29.2999C15.1532 29.4283 15.3056 29.4842 15.379 29.4283C15.4694 29.3558 15.4694 29.2106 15.379 29.0822C15.3 28.9538 15.1532 28.898 15.0629 28.9705Z" fill="#6E8AEF"/>
</g>
<defs>
<filter id="filter0_dd" x="0" y="0" width="46" height="44" filterUnits="userSpaceOnUse" color-interpolation-filters="sRGB">
<feFlood flood-opacity="0" result="BackgroundImageFix"/>
<feColorMatrix in="SourceAlpha" type="matrix" values="0 0 0 0 0 0 0 0 0 0 0 0 0 0 0 0 0 0 127 0"/>
<feOffset dx="-4" dy="-4"/>
<feGaussianBlur stdDeviation="2.5"/>
<feColorMatrix type="matrix" values="0 0 0 0 1 0 0 0 0 1 0 0 0 0 1 0 0 0 1 0"/>
<feBlend mode="normal" in2="BackgroundImageFix" result="effect1_dropShadow"/>
<feColorMatrix in="SourceAlpha" type="matrix" values="0 0 0 0 0 0 0 0 0 0 0 0 0 0 0 0 0 0 127 0"/>
<feOffset dx="4" dy="3"/>
<feGaussianBlur stdDeviation="2.5"/>
<feColorMatrix type="matrix" values="0 0 0 0 0 0 0 0 0 0 0 0 0 0 0 0 0 0 0.15 0"/>
<feBlend mode="normal" in2="effect1_dropShadow" result="effect2_dropShadow"/>
<feBlend mode="normal" in="SourceGraphic" in2="effect2_dropShadow" result="shape"/>
</filter>
</defs>
</svg>
