<svg width="42" height="33" viewBox="0 0 42 33" fill="none" xmlns="http://www.w3.org/2000/svg">
<g filter="url(#filter0_dd)">
<path d="M23.9873 16.5065H16.6972L16.7099 18.6364H21.6209C21.0356 21.2338 19.2417 22.8182 16.8371 22.8182C13.6819 22.8182 11.1247 20.2078 11.1247 16.987C11.1247 13.7662 13.6819 11.1558 16.8371 11.1558C18.3384 11.1558 19.6997 11.7532 20.7176 12.7143L22.3333 11.2987C20.9211 9.87013 18.9746 9 16.8371 9C12.5115 9 9 12.5844 9 17C9 21.4156 12.5115 25 16.8371 25C20.9975 25 24 21.7662 24 17.3506L23.9873 16.5065Z" fill="#F65314"/>
<path d="M33 17.2934H30.1588V14.3511H28.3486V17.2934H25.5195V19.176H28.3486V22.1184H30.1588V19.176H33V17.2934Z" fill="#F65314"/>
</g>
<defs>
<filter id="filter0_dd" x="0" y="0" width="42" height="33" filterUnits="userSpaceOnUse" color-interpolation-filters="sRGB">
<feFlood flood-opacity="0" result="BackgroundImageFix"/>
<feColorMatrix in="SourceAlpha" type="matrix" values="0 0 0 0 0 0 0 0 0 0 0 0 0 0 0 0 0 0 127 0"/>
<feOffset dx="-4" dy="-4"/>
<feGaussianBlur stdDeviation="2.5"/>
<feColorMatrix type="matrix" values="0 0 0 0 1 0 0 0 0 1 0 0 0 0 1 0 0 0 1 0"/>
<feBlend mode="normal" in2="BackgroundImageFix" result="effect1_dropShadow"/>
<feColorMatrix in="SourceAlpha" type="matrix" values="0 0 0 0 0 0 0 0 0 0 0 0 0 0 0 0 0 0 127 0"/>
<feOffset dx="4" dy="3"/>
<feGaussianBlur stdDeviation="2.5"/>
<feColorMatrix type="matrix" values="0 0 0 0 0 0 0 0 0 0 0 0 0 0 0 0 0 0 0.15 0"/>
<feBlend mode="normal" in2="effect1_dropShadow" result="effect2_dropShadow"/>
<feBlend mode="normal" in="SourceGraphic" in2="effect2_dropShadow" result="shape"/>
</filter>
</defs>
</svg>
