<svg width="42" height="41" viewBox="0 0 42 41" fill="none" xmlns="http://www.w3.org/2000/svg">
<g filter="url(#filter0_dd)">
<path d="M21 11.1594C24.2082 11.1594 24.5784 11.1748 25.8432 11.2365C27.0154 11.2828 27.6478 11.4833 28.0643 11.653C28.6195 11.8689 29.0206 12.1311 29.437 12.5476C29.8535 12.964 30.1157 13.365 30.3316 13.9203C30.5013 14.3368 30.6864 14.9846 30.7481 16.1414C30.8098 17.4062 30.8252 17.7918 30.8252 20.9846C30.8252 24.1928 30.8098 24.563 30.7481 25.8278C30.7018 27 30.5013 27.6324 30.3316 28.0488C30.1157 28.6041 29.8535 29.0051 29.437 29.4216C29.0206 29.838 28.6195 30.1003 28.0643 30.3162C27.6478 30.4859 27 30.671 25.8432 30.7326C24.5784 30.7943 24.2082 30.8098 21 30.8098C17.7918 30.8098 17.4216 30.7943 16.1568 30.7326C14.9846 30.6864 14.3522 30.4859 13.9357 30.3162C13.3805 30.1003 12.9794 29.838 12.563 29.4216C12.1465 29.0051 11.8843 28.6041 11.6684 28.0488C11.4987 27.6324 11.3136 26.9846 11.2519 25.8278C11.1902 24.563 11.1748 24.1774 11.1748 20.9846C11.1748 17.7764 11.1902 17.4062 11.2519 16.1414C11.2982 14.9692 11.4987 14.3368 11.6684 13.9203C11.8843 13.365 12.1311 12.964 12.563 12.5476C12.9794 12.1311 13.3805 11.8689 13.9357 11.653C14.3522 11.4833 15 11.2982 16.1568 11.2365C17.4216 11.1748 17.8072 11.1594 21 11.1594ZM21 9C17.7455 9 17.329 9.01542 16.0643 9.07712C14.7841 9.13882 13.9203 9.33933 13.1491 9.63239C12.3625 9.94087 11.6992 10.3419 11.0206 11.0206C10.3573 11.6838 9.94087 12.3625 9.63239 13.1491C9.33933 13.9049 9.13882 14.7841 9.07712 16.0643C9.01542 17.3445 9 17.7455 9 21C9 24.2545 9.01542 24.671 9.07712 25.9357C9.13882 27.2159 9.33933 28.0797 9.63239 28.8509C9.94087 29.6375 10.3419 30.3008 11.0206 30.9794C11.6838 31.6427 12.3625 32.0591 13.1491 32.3676C13.9049 32.6607 14.7841 32.8612 16.0643 32.9229C17.3445 32.9846 17.7455 33 21 33C24.2545 33 24.671 32.9846 25.9357 32.9229C27.2159 32.8612 28.0797 32.6607 28.8509 32.3676C29.6375 32.0591 30.3008 31.6581 30.9794 30.9794C31.6427 30.3162 32.0591 29.6375 32.3676 28.8509C32.6607 28.0951 32.8612 27.2159 32.9229 25.9357C32.9846 24.6555 33 24.2545 33 21C33 17.7455 32.9846 17.329 32.9229 16.0643C32.8612 14.7841 32.6607 13.9203 32.3676 13.1491C32.0591 12.3625 31.6581 11.6992 30.9794 11.0206C30.3162 10.3573 29.6375 9.94087 28.8509 9.63239C28.0951 9.33933 27.2159 9.13882 25.9357 9.07712C24.671 9.01542 24.2545 9 21 9Z" fill="#6E8AEF"/>
<path d="M21 15C17.6917 15 15 17.6917 15 21C15 24.3083 17.6917 27 21 27C24.3083 27 27 24.3083 27 21C27 17.6917 24.3233 15 21 15ZM21 24.8947C18.8496 24.8947 17.1053 23.1504 17.1053 21C17.1053 18.8496 18.8496 17.1053 21 17.1053C23.1504 17.1053 24.8947 18.8496 24.8947 21C24.8947 23.1504 23.1504 24.8947 21 24.8947Z" fill="#6E8AEF"/>
<path d="M29 15.5C29 16.3226 28.3226 17 27.5 17C26.6613 17 26 16.3226 26 15.5C26 14.6774 26.6774 14 27.5 14C28.3387 14 29 14.6774 29 15.5Z" fill="#6E8AEF"/>
</g>
<defs>
<filter id="filter0_dd" x="0" y="0" width="42" height="41" filterUnits="userSpaceOnUse" color-interpolation-filters="sRGB">
<feFlood flood-opacity="0" result="BackgroundImageFix"/>
<feColorMatrix in="SourceAlpha" type="matrix" values="0 0 0 0 0 0 0 0 0 0 0 0 0 0 0 0 0 0 127 0"/>
<feOffset dx="-4" dy="-4"/>
<feGaussianBlur stdDeviation="2.5"/>
<feColorMatrix type="matrix" values="0 0 0 0 1 0 0 0 0 1 0 0 0 0 1 0 0 0 0.3 0"/>
<feBlend mode="normal" in2="BackgroundImageFix" result="effect1_dropShadow"/>
<feColorMatrix in="SourceAlpha" type="matrix" values="0 0 0 0 0 0 0 0 0 0 0 0 0 0 0 0 0 0 127 0"/>
<feOffset dx="4" dy="3"/>
<feGaussianBlur stdDeviation="2.5"/>
<feColorMatrix type="matrix" values="0 0 0 0 0 0 0 0 0 0 0 0 0 0 0 0 0 0 0.15 0"/>
<feBlend mode="normal" in2="effect1_dropShadow" result="effect2_dropShadow"/>
<feBlend mode="normal" in="SourceGraphic" in2="effect2_dropShadow" result="shape"/>
</filter>
</defs>
</svg>
